<?xml version="1.0" encoding="utf-8"?>
<!-- Generator: Adobe Illustrator 17.0.0, SVG Export Plug-In . SVG Version: 6.00 Build 0)  -->
<!DOCTYPE svg PUBLIC "-//W3C//DTD SVG 1.1//EN" "http://www.w3.org/Graphics/SVG/1.1/DTD/svg11.dtd">
<svg version="1.1" id="Layer_1" xmlns="http://www.w3.org/2000/svg" xmlns:xlink="http://www.w3.org/1999/xlink" x="0px" y="0px"
	 width="151.53px" height="126.658px" viewBox="0 0 151.53 126.658" enable-background="new 0 0 151.53 126.658"
	 xml:space="preserve">
<g>
	<path fill="#8A4072" d="M128.675,76.069c0.46-0.718,0.554-1.701,0.164-2.54c-0.373-0.808-1.091-1.265-1.831-1.265
		c-0.333,0-0.665,0.09-0.979,0.283c-1.007,0.621-1.393,2.07-0.853,3.233c0.393,0.84,1.153,1.295,1.927,1.257l21.454,46.205h-23.535
		l-8.57-18.459h-11.39c-0.332-0.808-1.04-1.367-1.868-1.367c-1.149,0-2.076,1.07-2.076,2.39c0,1.317,0.927,2.389,2.076,2.389
		c0.828,0,1.536-0.558,1.868-1.36h10.321l8.573,18.461h27.575L128.675,76.069z"/>
	<path fill="#8A4072" d="M24.9,23.435c0.827,0,1.535-0.563,1.868-1.367h62.341l4.206,9.06l-2.85,8.432l20.727,44.638H89.905
		l-4.897-5.653L68.99,78.462l16.611-35.777l16.611,35.773h-7.169c-0.335-0.807-1.043-1.365-1.869-1.365
		c-1.146,0-2.079,1.07-2.079,2.389c0,1.319,0.933,2.39,2.079,2.39c0.827,0,1.535-0.558,1.869-1.364h10.139L85.601,38.337
		L66.025,80.502l18.238,0.092l4.906,5.656h24.993L92.421,39.423l2.846-8.431l-5.091-10.974H26.767
		c-0.332-0.807-1.041-1.366-1.868-1.366c-1.148,0-2.077,1.07-2.077,2.391C22.822,22.365,23.751,23.435,24.9,23.435z"/>
	<path fill="#8A4072" d="M99.486,17.551l11.03,23.752c-0.46,0.72-0.557,1.704-0.169,2.542c0.543,1.163,1.805,1.604,2.816,0.984
		c1.01-0.624,1.39-2.074,0.851-3.237c-0.39-0.837-1.152-1.293-1.927-1.254l-11.029-23.754c0.46-0.719,0.557-1.701,0.164-2.541
		c-0.373-0.808-1.091-1.264-1.834-1.264c-0.331,0-0.663,0.091-0.977,0.281c-1.013,0.623-1.391,2.074-0.853,3.237
		C97.952,17.135,98.712,17.59,99.486,17.551z"/>
	<path fill="#8A4072" d="M92.138,103.417c-0.825,0-1.535,0.559-1.873,1.367H54.751l-8.571,18.459H9.959
		c-0.335-0.805-1.04-1.367-1.867-1.367c-1.146,0-2.08,1.074-2.08,2.391c0,1.321,0.934,2.391,2.08,2.391
		c0.827,0,1.533-0.559,1.867-1.362h37.289l8.572-18.461h34.445c0.339,0.802,1.048,1.36,1.873,1.36c1.146,0,2.075-1.072,2.075-2.389
		C94.213,104.486,93.284,103.417,92.138,103.417z"/>
	<path fill="#8A4072" d="M6.977,56.079c0.829,0,1.536-0.561,1.868-1.365h45.618l4.377-9.429H14.859
		c-0.332-0.804-1.041-1.368-1.868-1.368c-1.146,0-2.078,1.072-2.078,2.391c0,1.321,0.932,2.392,2.078,2.392
		c0.827,0,1.535-0.56,1.868-1.365h41.009l-2.472,5.327H8.845c-0.332-0.806-1.039-1.365-1.868-1.365
		c-1.148,0-2.077,1.068-2.077,2.391C4.9,55.009,5.829,56.079,6.977,56.079z"/>
	<path fill="#8A4072" d="M6.531,68.512c0.829,0,1.535-0.561,1.872-1.366h40.286l4-8.61H36.462c-0.332-0.806-1.043-1.367-1.867-1.367
		c-1.146,0-2.078,1.072-2.078,2.393c0,1.317,0.932,2.391,2.078,2.391c0.824,0,1.535-0.56,1.867-1.367h13.253l-2.093,4.509H8.403
		c-0.337-0.804-1.043-1.365-1.872-1.365c-1.146,0-2.075,1.072-2.075,2.39C4.456,67.443,5.385,68.512,6.531,68.512z"/>
	<path fill="#8A4072" d="M53.557,67.441c1.014,0.622,2.272,0.181,2.809-0.981c0.392-0.84,0.296-1.822-0.164-2.544l6.146-13.23
		c0.774,0.04,1.535-0.414,1.925-1.252c0.54-1.166,0.157-2.616-0.852-3.239c-0.312-0.19-0.647-0.281-0.977-0.281
		c-0.742,0-1.46,0.459-1.836,1.266c-0.388,0.838-0.292,1.819,0.166,2.541l-6.143,13.231c-0.775-0.041-1.535,0.414-1.927,1.25
		C52.166,65.368,52.546,66.818,53.557,67.441z"/>
	<path fill="#8A4072" d="M68.519,68.156c0.54-1.164,0.156-2.61-0.854-3.235c-0.31-0.193-0.643-0.282-0.975-0.282
		c-0.743,0-1.46,0.458-1.832,1.262c-0.392,0.841-0.296,1.825,0.164,2.543l-2.109,4.538c-0.774-0.041-1.535,0.415-1.926,1.256
		c-0.54,1.164-0.157,2.61,0.851,3.235c1.014,0.62,2.271,0.183,2.811-0.982c0.391-0.838,0.296-1.821-0.165-2.54l2.11-4.539
		C67.368,69.45,68.129,68.996,68.519,68.156z"/>
	<path fill="#8A4072" d="M7.171,29.384c0.827,0,1.533-0.561,1.87-1.368H83.79L71.655,54.158c-0.774-0.041-1.54,0.415-1.927,1.255
		c-0.542,1.163-0.16,2.609,0.852,3.234c1.012,0.623,2.27,0.183,2.809-0.98c0.392-0.839,0.294-1.823-0.167-2.542l13.541-29.157H9.041
		c-0.337-0.806-1.043-1.367-1.87-1.367c-1.146,0-2.075,1.072-2.075,2.395C5.096,28.314,6.025,29.384,7.171,29.384z"/>
	<path fill="#8A4072" d="M24.28,32.433c-0.335-0.803-1.043-1.362-1.869-1.362c-1.148,0-2.077,1.069-2.077,2.389
		c0,1.32,0.929,2.39,2.077,2.39c0.825,0,1.534-0.559,1.869-1.364h50.25L56.473,73.378c-0.772-0.041-1.537,0.415-1.927,1.252
		c-0.54,1.166-0.159,2.612,0.854,3.235c1.012,0.625,2.267,0.185,2.81-0.981c0.389-0.838,0.296-1.82-0.167-2.54l19.46-41.912H24.28z"
		/>
	<path fill="#8A4072" d="M100.671,39.731c-0.373-0.806-1.09-1.265-1.832-1.265c-0.333,0-0.667,0.089-0.979,0.281
		c-1.011,0.624-1.393,2.072-0.85,3.235c0.39,0.84,1.152,1.296,1.926,1.256l29.161,62.806c-0.46,0.72-0.557,1.705-0.167,2.542
		c0.543,1.165,1.798,1.605,2.809,0.982c1.014-0.623,1.395-2.072,0.854-3.235c-0.39-0.839-1.15-1.295-1.927-1.253l-29.159-62.807
		C100.966,41.553,101.061,40.57,100.671,39.731z"/>
	<path fill="#8A4072" d="M76.689,96.293c-1.145,0-2.078,1.074-2.078,2.394c0,1.319,0.933,2.389,2.078,2.389
		c0.827,0,1.535-0.559,1.87-1.364h39.834l8.801,18.904h14.492l-27.019-58.198c0.457-0.721,0.552-1.703,0.164-2.54
		c-0.375-0.805-1.091-1.263-1.834-1.263c-0.331,0-0.665,0.087-0.978,0.278c-1.011,0.625-1.391,2.071-0.851,3.237
		c0.387,0.839,1.153,1.294,1.927,1.255l25.617,55.178h-10.452l-8.801-18.903h-40.9C78.225,96.855,77.517,96.293,76.689,96.293z"/>
	<path fill="#8A4072" d="M36.599,4.782c0.829,0,1.535-0.561,1.87-1.366h47.71l21.797,46.942l8.139,3.006l3.794,8.173
		c-0.459,0.718-0.555,1.703-0.165,2.54c0.541,1.163,1.798,1.606,2.809,0.979c1.011-0.621,1.396-2.069,0.855-3.235
		c-0.39-0.84-1.153-1.294-1.927-1.254l-4.135-8.905l-8.139-3.001L87.249,1.366h-48.78C38.134,0.562,37.428,0,36.599,0
		c-1.146,0-2.077,1.071-2.077,2.394C34.522,3.713,35.453,4.782,36.599,4.782z"/>
	<path fill="#8A4072" d="M79.131,6.494H42.699c-0.332-0.805-1.038-1.366-1.868-1.366c-1.148,0-2.077,1.07-2.077,2.39
		c0,1.323,0.93,2.393,2.077,2.393c0.829,0,1.536-0.562,1.868-1.367h36.433c0.337,0.805,1.043,1.367,1.87,1.367
		c1.145,0,2.076-1.07,2.076-2.393c0-1.32-0.93-2.39-2.076-2.39C80.175,5.129,79.469,5.689,79.131,6.494z"/>
	<path fill="#8A4072" d="M36.599,16.833c0.829,0,1.535-0.559,1.87-1.364h44.227c0.335,0.805,1.04,1.364,1.865,1.364
		c1.153,0,2.077-1.072,2.077-2.391c0-1.321-0.924-2.39-2.077-2.39c-0.825,0-1.531,0.561-1.865,1.367H38.469
		c-0.335-0.806-1.041-1.367-1.87-1.367c-1.146,0-2.077,1.069-2.077,2.39C34.522,15.761,35.453,16.833,36.599,16.833z"/>
	<path fill="#8A4072" d="M43.3,118.541l8.688-18.831h14.938l7.13-7.065h38.262c0.335,0.805,1.043,1.362,1.868,1.362
		c1.148,0,2.079-1.068,2.079-2.389c0-1.321-0.931-2.389-2.079-2.389c-0.825,0-1.533,0.559-1.868,1.361H73.394l-7.128,7.068H50.915
		l-8.686,18.833H6.396c-0.335-0.804-1.043-1.367-1.87-1.367c-1.146,0-2.077,1.071-2.077,2.389c0,1.32,0.932,2.392,2.077,2.392
		c0.827,0,1.535-0.564,1.87-1.366H43.3z"/>
	<path fill="#8A4072" d="M64.519,42.473c1.148,0,2.075-1.069,2.075-2.39c0-1.321-0.927-2.393-2.075-2.393
		c-0.827,0-1.533,0.562-1.87,1.367H9.069c-0.333-0.805-1.043-1.367-1.868-1.367c-1.148,0-2.078,1.072-2.078,2.393
		c0,1.321,0.929,2.39,2.078,2.39c0.825,0,1.535-0.561,1.868-1.366h53.58C62.986,41.913,63.692,42.473,64.519,42.473z"/>
	<path fill="#8A4072" d="M16.421,71.621c-0.337-0.805-1.045-1.367-1.872-1.367c-1.146,0-2.077,1.07-2.077,2.389
		c0,1.322,0.932,2.393,2.077,2.393c0.827,0,1.535-0.561,1.872-1.365h33.542l-0.54,1.161c-0.774-0.037-1.535,0.417-1.927,1.256
		c-0.538,1.165-0.157,2.612,0.852,3.237c1.014,0.62,2.271,0.18,2.813-0.984c0.389-0.839,0.294-1.822-0.166-2.54l1.941-4.18H16.421z"
		/>
	<path fill="#8A4072" d="M3.86,87.613c0.826,0,1.535-0.559,1.869-1.362h72.735c0.335,0.804,1.041,1.362,1.868,1.362
		c1.148,0,2.077-1.07,2.077-2.39c0-1.319-0.929-2.391-2.077-2.391c-0.827,0-1.533,0.561-1.868,1.366H5.729
		c-0.334-0.805-1.044-1.366-1.869-1.366c-1.149,0-2.076,1.072-2.076,2.391C1.784,86.543,2.71,87.613,3.86,87.613z"/>
	<path fill="#8A4072" d="M10.85,99.822h17.056c0.333,0.808,1.041,1.367,1.868,1.367c1.146,0,2.075-1.07,2.075-2.387
		c0-1.324-0.929-2.394-2.075-2.394c-0.827,0-1.535,0.563-1.868,1.367H10.85c-0.333-0.804-1.043-1.367-1.868-1.367
		c-1.148,0-2.077,1.07-2.077,2.394c0,1.317,0.929,2.387,2.077,2.387C9.806,101.189,10.517,100.63,10.85,99.822z"/>
	<path fill="#8A4072" d="M2.076,94.264c0.829,0,1.536-0.556,1.87-1.363h36.884l-5.278,11.282H11.073
		c-0.332-0.802-1.043-1.366-1.868-1.366c-1.148,0-2.077,1.072-2.077,2.394c0,1.317,0.929,2.387,2.077,2.387
		c0.825,0,1.535-0.559,1.868-1.364h25.54l7.198-15.384H3.945c-0.334-0.805-1.041-1.369-1.87-1.369C0.93,89.482,0,90.555,0,91.877
		C0,93.197,0.93,94.264,2.076,94.264z"/>
	<path fill="#8A4072" d="M4.39,112.131h35.992l9.8-19.485h14.25c0.335,0.805,1.043,1.362,1.868,1.362
		c1.148,0,2.075-1.068,2.075-2.389c0-1.321-0.927-2.389-2.075-2.389c-0.825,0-1.533,0.559-1.868,1.361H49.155l-9.799,19.49H4.39
		c-0.332-0.804-1.041-1.367-1.868-1.367c-1.146,0-2.078,1.07-2.078,2.391c0,1.321,0.932,2.391,2.078,2.391
		C3.349,113.497,4.057,112.938,4.39,112.131z"/>
	<path fill="#8A4072" d="M36.369,78.458H11.743c-0.335-0.807-1.043-1.365-1.872-1.365c-1.144,0-2.075,1.07-2.075,2.389
		c0,1.319,0.932,2.39,2.075,2.39c0.829,0,1.537-0.558,1.872-1.364h24.626c0.335,0.806,1.041,1.364,1.868,1.364
		c1.148,0,2.077-1.071,2.077-2.39c0-1.32-0.929-2.389-2.077-2.389C37.41,77.093,36.704,77.652,36.369,78.458z"/>
</g>
</svg>
